<svg version="1.1" id="waterWave" xmlns="http://www.w3.org/2000/svg" xmlns:xlink="http://www.w3.org/1999/xlink" x="0px" y="0px"
	 viewBox="0 0 1189.2 184.5" style="enable-background:new 0 0 1189.2 184.5;" xml:space="preserve">
<style type="text/css">
	.st0{clip-path:url(#SVGID_2_);}
	.st1{fill:url(#SVGID_3_);}
	.st2{fill:url(#SVGID_4_);}
	.st3{fill:url(#SVGID_5_);}
</style>
<g>
	<g>
		<defs>
			<rect id="SVGID_1_" x="-12.1" y="-253.1" width="1200" height="800"/>
		</defs>
		<clipPath id="SVGID_2_">
			<use xlink:href="#SVGID_1_"  style="overflow:visible;"/>
		</clipPath>
		<g class="st0">
			
				<linearGradient id="SVGID_3_" gradientUnits="userSpaceOnUse" x1="635.65" y1="-62.4828" x2="635.65" y2="241.1187" gradientTransform="matrix(1 0 0 -1 0 133.8125)">
				<stop  offset="0" style="stop-color:#00AAD4"/>
				<stop  offset="1" style="stop-color:#AAEEFF"/>
			</linearGradient>
			<path class="st1" d="M16.9,151V58.2c168.5-75.9,187.8,38.1,304.5-9.9c169.5-69.7,150.8,74.7,330.5-8.8
				c115.8-53.9,127.9,73.2,309.5,5.6c90.4-33.7,103.3,56.2,241.6-5.2c19.7-8.7,36.7-8.5,51.4-5.1V151L16.9,151L16.9,151z"/>
			
				<linearGradient id="SVGID_4_" gradientUnits="userSpaceOnUse" x1="627.15" y1="-67.3099" x2="627.15" y2="189.9922" gradientTransform="matrix(1 0 0 -1 0 133.8125)">
				<stop  offset="0" style="stop-color:#00AAD4"/>
				<stop  offset="0.6316" style="stop-color:#80DDF4"/>
				<stop  offset="1" style="stop-color:#AAEEFF"/>
			</linearGradient>
			<path class="st2" d="M1254.4,166.5V73.7c-168.5-75.9-187.8,38.1-304.5-9.9C780.4-5.9,799.1,138.5,619.4,55
				c-115.8-53.9-127.9,73.2-309.5,5.6c-90.4-33.7-103.3,56.2-241.6-5.2c-27.8-12.3-50.2-6.8-68.4,0.3v110.8L1254.4,166.5
				L1254.4,166.5z"/>
			
				<linearGradient id="SVGID_5_" gradientUnits="userSpaceOnUse" x1="627.2" y1="-213.7372" x2="627.2" y2="182.1505" gradientTransform="matrix(1 0 0 -1 0 133.8125)">
				<stop  offset="0" style="stop-color:#00AAD4"/>
				<stop  offset="1" style="stop-color:#AAEEFF"/>
			</linearGradient>
			<path class="st3" d="M0,88c164.5-72,184.4,39.6,300.1-8c169.5-69.7,150.8,74.7,330.5-8.8c115.8-53.9,127.9,73.2,309.5,5.6
				c90.4-33.7,103.3,56.2,241.6-5.2c30-13.3,53.9-5.7,72.7,2.1v109H0V88z"/>
		</g>
	</g>
</g>
</svg>
